<?xml version="1.0" standalone="no"?><!DOCTYPE svg PUBLIC "-//W3C//DTD SVG 1.1//EN" "http://www.w3.org/Graphics/SVG/1.1/DTD/svg11.dtd"><svg t="1659494709202" class="icon" viewBox="0 0 1107 1024" version="1.1" xmlns="http://www.w3.org/2000/svg" p-id="21236" width="34.59375" height="32" xmlns:xlink="http://www.w3.org/1999/xlink"><defs><style type="text/css">@font-face { font-family: "feedback-iconfont"; src: url("//at.alicdn.com/t/font_1031158_u69w8yhxdu.woff2?t=1630033759944") format("woff2"), url("//at.alicdn.com/t/font_1031158_u69w8yhxdu.woff?t=1630033759944") format("woff"), url("//at.alicdn.com/t/font_1031158_u69w8yhxdu.ttf?t=1630033759944") format("truetype"); }
</style></defs><path d="M931.00973 614.372324l-9.907892 5.950271-0.027676 0.027675-0.747243 0.442811a41.264432 41.264432 0 0 1-56.596757-14.308324 41.264432 41.264432 0 0 1 14.14227-56.236973l80.314811-48.294054c4.151351-3.819243 9.02227-6.752865 14.336-8.634811a41.264432 41.264432 0 0 1 56.403027 14.059243l58.201946 96.698811a41.098378 41.098378 0 0 1-14.336 57.980541 40.987676 40.987676 0 0 1-55.960216-15.332325l-6.420757-10.738162c-50.895568 187.087568-205.547243 329.119135-396.315675 367.532973-274.542703 55.268324-548.089081-118.59027-603.800217-394.987243-26.679351-132.483459 1.383784-269.062919 77.021406-380.983352 76.550919-113.248865 192.899459-189.965838 326.849729-216.89427 192.650378-38.745946 395.153297 35.812324 513.494487 193.231568a41.15373 41.15373 0 0 1-8.081297 57.620756 41.181405 41.181405 0 0 1-57.648433-8.136648C762.464865 121.164108 592.259459 58.755459 430.439784 91.32973c-112.64 22.694054-210.528865 87.04-274.930162 182.272-63.377297 93.654486-86.901622 207.844324-64.595027 318.713081 46.716541 232.005189 276.839784 376.859676 506.935351 330.55827 160.297514-32.297514 290.428541-151.385946 333.132108-308.500757z" fill="#ffffff" p-id="21237"></path><path d="M689.677838 712.925405h-17.546379c-7.721514 0-8.828541-1.494486-8.82854-17.629405v-131.321081h61.993513V382.201081h-52.611459c13.671784-25.738378 27.952432-55.711135 41.651892-84.687567l-67.417946-20.922811a622.010811 622.010811 0 0 1-41.181405 105.610378h-58.672433l32.934054-14.446703c-8.275027-25.184865-29.640649-62.713081-49.926919-90.582486l-53.773838 22.998486c16.494703 25.184865 33.487568 57.371676 42.786595 82.030703h-57.011892v181.718487h50.480433c-5.535135 72.953081-20.341622 129.21773-99.826163 163.009729 13.145946 11.236324 30.72 34.816 38.358487 49.816217 95.42573-43.893622 116.237838-118.451892 123.959351-212.825946h28.533622v131.929946c0 54.105946 9.852541 71.790703 57.011892 71.790702h36.172108c37.306811 0 52.694486-20.396973 57.593081-95.951567-15.885838-3.708541-41.098378-13.948541-52.61146-23.607352-1.660541 56.901189-3.874595 64.816432-12.09427 64.816433z m-29.640649-204.689297h-135.444757v-70.213189h135.444757v70.213189z" fill="#ffffff" p-id="21238"></path><path d="M454.932757 565.552432c-10.406054-12.260324-55.406703-58.451027-70.213189-71.320216v-7.915243h65.840432v-59.58573H384.691892v-77.713297c22.611027-4.704865 44.806919-11.153297 66.393946-19.317622l-36.199784-51.476756c-44.419459 17.712432-111.920432 33.764324-172.751568 43.395459 6.586811 13.976216 14.861838 34.871351 17.574055 49.34573 20.756757-2.352432 41.458162-5.369081 61.993513-9.077622v64.844108H241.055135v59.58573h68.580324c-19.206919 50.812541-49.899243 108.211892-80.038054 142.52973 10.350703 16.605405 25.184865 43.450811 31.218163 62.187243 21.919135-27.343568 42.731243-66.975135 60.886486-109.318919v194.006487h63.017514v-218.748541c13.727135 21.476324 26.900757 43.976649 34.041081 59.58573l36.172108-51.006271z" fill="#ffffff" p-id="21239"></path></svg>