<?xml version="1.0" encoding="utf-8"?>
<svg version="1.1" xmlns:xlink="http://www.w3.org/1999/xlink" width="15px" height="16px" xmlns="http://www.w3.org/2000/svg">
  <g transform="matrix(1 0 0 1 -96 -842 )">
    <path d="M 14.9919977678572 7.97736283185839  C 14.9919977678572 12.347982300885  11.6405357142857 15.8913274336284  7.50642857142857 15.8913274336282  C 3.37217075892858 15.8913274336282  0.0208426339285808 12.3479646017699  0.0208426339285808 7.97734513274338  C 0.0208426339285808 3.60667256637169  3.37217075892858 0.0633982300885236  7.50642857142857 0.0633982300885236  C 11.6405357142857 0.0633982300885236  14.9919977678572 3.60667256637169  14.9919977678572 7.97736283185839  Z M 14.1436941964286 7.97736283185839  C 14.1436941964286 4.10192920353984  11.1720870535714 0.960230088495564  7.50642857142857 0.960230088495564  C 3.84077008928573 0.960230088495564  0.869129464285706 4.10185840707959  0.869129464285706 7.97736283185839  C 0.869129464285706 11.8527964601769  3.84077008928573 14.9944778761062  7.50642857142857 14.9944778761062  C 11.1720870535714 14.9944778761062  14.1436941964286 11.8527964601769  14.1436941964286 7.97736283185839  Z M 11.1281919642857 9.34044247787608  C 11.3494587053572 9.44989380530978  11.4443470982143 9.72769911504429  11.3408203125 9.96164601769908  C 11.2377287946429 10.1951504424778  10.9745256696429 10.2954513274336  10.7536607142857 10.1860353982302  L 7.23609375000001 8.94277876106196  C 7.06784598214286 8.85971681415936  6.9741796875 8.67906194690272  6.98363839285713 8.49438938053095  C 6.98151227678572 8.47569911504422  6.97339285714286 8.46017699115043  6.97339285714286 8.4409380530974  L 6.97339285714286 3.30368141592919  C 6.97339285714286 3.04552212389376  7.17093750000001 2.83660176991157  7.41512276785716 2.83660176991157  C 7.65929129464286 2.83660176991157  7.85683593750001 3.04552212389376  7.85683593750001 3.30368141592919  L 7.85683593750001 8.18380530973445  L 11.1281919642857 9.34044247787608  Z " fill-rule="nonzero" fill="#d7d7d7" stroke="none" transform="matrix(1 0 0 1 96 842 )" />
  </g>
</svg>