<?xml version="1.0" standalone="no"?><!DOCTYPE svg PUBLIC "-//W3C//DTD SVG 1.1//EN" "http://www.w3.org/Graphics/SVG/1.1/DTD/svg11.dtd"><svg t="1683857523810" class="icon" viewBox="0 0 1024 1024" version="1.1" xmlns="http://www.w3.org/2000/svg" p-id="20708" xmlns:xlink="http://www.w3.org/1999/xlink" width="200" height="200"><path d="M742.9 704.4c-75.6 0-138.4 36.5-150.5 84.5h-34.6c11.5-66.7 90-118.3 185.1-118.3S916.5 722.2 928 788.9h-34.6c-12.1-47.9-74.9-84.5-150.5-84.5zM522.5 839.6H183.4v-16.9h339.1v16.9z m0-321l203.5-169v50.7l-203.5 169-101.7-101.4-169.6 152v-50.7l169.5-152.1 101.8 101.5zM810.8 113H285.1v121H166.5v622.4h356.1v33.8h-390V197.5L251.2 79.2h593.4v574.5h-33.9V113z m-559.6 16.9l-67.8 67.6h67.8v-67.6z m423.9 675.9c0-37.3 30.4-67.6 67.8-67.6 37.5 0 67.8 30.3 67.8 67.6s-30.4 67.6-67.8 67.6-67.8-30.3-67.8-67.6z m101.7 0c0-18.7-15.2-33.8-33.9-33.8S709 787.1 709 805.8s15.2 33.8 33.9 33.8 33.9-15.1 33.9-33.8z m-33.9 101.4c75.6 0 138.4-36.5 150.5-84.5H928C916.5 889.4 838 941 742.9 941s-173.6-51.6-185.1-118.3h34.6c12.1 48 74.9 84.5 150.5 84.5z" fill="#1290db" p-id="20709"></path></svg>