<?xml version="1.0" encoding="utf-8"?>
<svg version="1.1" xmlns:xlink="http://www.w3.org/1999/xlink" width="20px" height="13px" xmlns="http://www.w3.org/2000/svg">
  <g transform="matrix(1 0 0 1 -357 -624 )">
    <path d="M 19.8842592592593 6.06892067620286  C 19.9614197530864 6.18162115301257  20 6.31122670134373  20 6.45773732119636  C 20 6.61551798872995  19.9614197530864 6.7507585609016  19.8842592592593 6.86345903771131  L 15.4398148148148 12.8478543563069  C 15.3163580246914 13.0056350238405  15.1813271604938 13.0394451668834  15.0347222222222 12.9492847854356  C 14.8881172839506 12.8478543563069  14.8148148148148 12.6844386649328  14.8148148148148 12.4590377113134  L 14.8148148148148 8.67230169050715  L 0.37037037037037 8.67230169050715  C 0.262345679012346 8.67230169050715  0.173611111111111 8.62158647594278  0.104166666666667 8.52015604681404  C 0.0347222222222222 8.41872561768531  0 8.28912006935414  0 8.13133940182055  L 0 4.88556566970091  C 0 4.72778500216732  0.0347222222222222 4.59817945383615  0.104166666666667 4.49674902470741  C 0.173611111111111 4.39531859557867  0.262345679012346 4.3446033810143  0.37037037037037 4.3446033810143  L 14.8148148148148 4.3446033810143  L 14.8148148148148 0.557867360208063  C 14.8148148148148 0.321196358907673  14.8881172839506 0.157780667533593  15.0347222222222 0.067620286085826  C 15.1813271604938 -0.0225400953619435  15.3163580246914 0.00563502384048442  15.4398148148148 0.152145643693108  L 19.8842592592593 6.06892067620286  Z " fill-rule="nonzero" fill="#aaaaaa" stroke="none" transform="matrix(1 0 0 1 357 624 )" />
  </g>
</svg>