<?xml version="1.0" encoding="utf-8"?>
<svg version="1.1" xmlns:xlink="http://www.w3.org/1999/xlink" width="10px" height="10px" xmlns="http://www.w3.org/2000/svg">
  <g transform="matrix(1 0 0 1 -166 -625 )">
    <path d="M 7.74739583333333 4.16666666666667  C 7.74739583333333 4.27951388888889  7.70616319444445 4.37717013888889  7.62369791666667 4.45963541666667  L 4.87630208333333 7.20703125  C 4.79383680555556 7.28949652777778  4.69618055555556 7.33072916666667  4.58333333333333 7.33072916666667  C 4.47048611111111 7.33072916666667  4.37282986111111 7.28949652777778  4.29036458333333 7.20703125  L 2.37630208333333 5.29296875  C 2.29383680555556 5.21050347222222  2.25260416666667 5.11284722222222  2.25260416666667 5  C 2.25260416666667 4.88715277777778  2.29383680555556 4.78949652777778  2.37630208333333 4.70703125  L 3.04036458333333 4.04296875  C 3.12282986111111 3.96050347222222  3.22048611111111 3.91927083333333  3.33333333333333 3.91927083333333  C 3.44618055555556 3.91927083333333  3.54383680555556 3.96050347222222  3.62630208333333 4.04296875  L 4.58333333333333 5  L 6.37369791666667 3.20963541666667  C 6.45616319444445 3.12717013888889  6.55381944444445 3.0859375  6.66666666666667 3.0859375  C 6.77951388888889 3.0859375  6.87717013888889 3.12717013888889  6.95963541666667 3.20963541666667  L 7.62369791666667 3.87369791666667  C 7.70616319444445 3.95616319444444  7.74739583333333 4.05381944444444  7.74739583333333 4.16666666666667  Z M 8.06640625 6.77734375  C 8.38324652777778 6.23480902777778  8.54166666666667 5.64236111111111  8.54166666666667 5  C 8.54166666666667 4.35763888888889  8.38324652777778 3.76519097222222  8.06640625 3.22265625  C 7.74956597222222 2.68012152777778  7.31987847222222 2.25043402777778  6.77734375 1.93359375  C 6.23480902777778 1.61675347222222  5.64236111111111 1.45833333333333  5 1.45833333333333  C 4.35763888888889 1.45833333333333  3.76519097222222 1.61675347222222  3.22265625 1.93359375  C 2.68012152777778 2.25043402777778  2.25043402777778 2.68012152777778  1.93359375 3.22265625  C 1.61675347222222 3.76519097222222  1.45833333333333 4.35763888888889  1.45833333333333 5  C 1.45833333333333 5.64236111111111  1.61675347222222 6.23480902777778  1.93359375 6.77734375  C 2.25043402777778 7.31987847222222  2.68012152777778 7.74956597222222  3.22265625 8.06640625  C 3.76519097222222 8.38324652777778  4.35763888888889 8.54166666666667  5 8.54166666666667  C 5.64236111111111 8.54166666666667  6.23480902777778 8.38324652777778  6.77734375 8.06640625  C 7.31987847222222 7.74956597222222  7.74956597222222 7.31987847222222  8.06640625 6.77734375  Z M 9.32942708333333 2.490234375  C 9.77647569444444 3.25629340277778  10 4.09288194444444  10 5  C 10 5.90711805555556  9.77647569444444 6.74370659722222  9.32942708333333 7.509765625  C 8.88237847222222 8.27582465277778  8.27582465277778 8.88237847222222  7.509765625 9.32942708333333  C 6.74370659722222 9.77647569444444  5.90711805555556 10  5 10  C 4.09288194444444 10  3.25629340277778 9.77647569444444  2.490234375 9.32942708333333  C 1.72417534722222 8.88237847222222  1.11762152777778 8.27582465277778  0.670572916666667 7.509765625  C 0.223524305555556 6.74370659722222  0 5.90711805555556  0 5  C 0 4.09288194444444  0.223524305555556 3.25629340277778  0.670572916666667 2.490234375  C 1.11762152777778 1.72417534722222  1.72417534722222 1.11762152777778  2.490234375 0.670572916666666  C 3.25629340277778 0.223524305555555  4.09288194444444 0  5 0  C 5.90711805555556 0  6.74370659722222 0.223524305555555  7.509765625 0.670572916666666  C 8.27582465277778 1.11762152777778  8.88237847222222 1.72417534722222  9.32942708333333 2.490234375  Z " fill-rule="nonzero" fill="#409eff" stroke="none" transform="matrix(1 0 0 1 166 625 )" />
  </g>
</svg>