<?xml version="1.0" encoding="utf-8"?>
<svg version="1.1" xmlns:xlink="http://www.w3.org/1999/xlink" width="30px" height="13px" xmlns="http://www.w3.org/2000/svg">
  <g transform="matrix(1 0 0 1 -222 -625 )">
    <path d="M 29.8263888888889 6.06892067620286  C 29.9421296296296 6.18162115301257  30 6.31122670134373  30 6.45773732119636  C 30 6.61551798872995  29.9421296296296 6.7507585609016  29.8263888888889 6.86345903771131  L 23.1597222222222 12.8478543563069  C 22.974537037037 13.0056350238405  22.7719907407407 13.0394451668834  22.5520833333333 12.9492847854356  C 22.3321759259259 12.8478543563069  22.2222222222222 12.6844386649328  22.2222222222222 12.4590377113134  L 22.2222222222222 8.67230169050715  L 0.555555555555556 8.67230169050715  C 0.393518518518519 8.67230169050715  0.260416666666667 8.62158647594278  0.15625 8.52015604681404  C 0.0520833333333333 8.41872561768531  0 8.28912006935414  0 8.13133940182055  L 0 4.88556566970091  C 0 4.72778500216732  0.0520833333333333 4.59817945383615  0.15625 4.49674902470741  C 0.260416666666667 4.39531859557867  0.393518518518519 4.3446033810143  0.555555555555556 4.3446033810143  L 22.2222222222222 4.3446033810143  L 22.2222222222222 0.557867360208063  C 22.2222222222222 0.321196358907673  22.3321759259259 0.157780667533593  22.5520833333333 0.067620286085826  C 22.7719907407407 -0.0225400953619435  22.974537037037 0.00563502384048442  23.1597222222222 0.152145643693108  L 29.8263888888889 6.06892067620286  Z " fill-rule="nonzero" fill="#409eff" stroke="none" transform="matrix(1 0 0 1 222 625 )" />
  </g>
</svg>