<?xml version="1.0" encoding="utf-8"?>
<svg version="1.1" xmlns:xlink="http://www.w3.org/1999/xlink" width="16px" height="12px" xmlns="http://www.w3.org/2000/svg">
  <g transform="matrix(1 0 0 1 -6 -239 )">
    <path d="M 15.8396793587174 9.81443298969072  C 15.9465597862391 9.95189003436426  16 10.1099656357388  16 10.2886597938144  C 16 10.46735395189  15.9465597862391 10.6254295532646  15.8396793587174 10.7628865979381  L 15.0380761523046 11.7938144329897  C 14.9311957247829 11.9312714776632  14.8082832331329 12  14.6693386773547 12  C 14.5303941215765 12  14.4074816299265 11.9312714776632  14.3006012024048 11.7938144329897  L 8 3.69072164948454  L 1.69939879759519 11.7938144329897  C 1.59251837007348 11.9312714776632  1.46960587842351 12  1.33066132264529 12  C 1.19171676686707 12  1.0688042752171 11.9312714776632  0.961923847695391 11.7938144329897  L 0.160320641282565 10.7628865979381  C 0.0534402137608552 10.6254295532646  0 10.46735395189  0 10.2886597938144  C 0 10.1099656357388  0.0534402137608552 9.95189003436426  0.160320641282565 9.81443298969072  L 7.6312625250501 0.20618556701031  C 7.73814295257181 0.0687285223367682  7.86105544422178 0  8 0  C 8.13894455577822 0  8.26185704742819 0.0687285223367682  8.3687374749499 0.20618556701031  L 15.8396793587174 9.81443298969072  Z " fill-rule="nonzero" fill="#7f7f7f" stroke="none" transform="matrix(1 0 0 1 6 239 )" />
  </g>
</svg>