<?xml version="1.0" encoding="utf-8"?>
<svg version="1.1" xmlns:xlink="http://www.w3.org/1999/xlink" width="12px" height="12px" viewBox="94 1020.5  12 12" xmlns="http://www.w3.org/2000/svg">
  <path d="M 100 1020.5  C 103.36 1020.5  106 1023.14  106 1026.5  C 106 1029.86  103.36 1032.5  100 1032.5  C 96.64 1032.5  94 1029.86  94 1026.5  C 94 1023.14  96.64 1020.5  100 1020.5  Z " fill-rule="nonzero" fill="#f0f0f0" stroke="none" />
  <path d="M 100 1021  C 103.08 1021  105.5 1023.42  105.5 1026.5  C 105.5 1029.58  103.08 1032  100 1032  C 96.92 1032  94.5 1029.58  94.5 1026.5  C 94.5 1023.42  96.92 1021  100 1021  Z " stroke-width="1" stroke="#797979" fill="none" />
  <path d="M 100 1029.5  C 98.32 1029.5  97 1028.18  97 1026.5  C 97 1024.82  98.32 1023.5  100 1023.5  C 101.68 1023.5  103 1024.82  103 1026.5  C 103 1028.18  101.68 1029.5  100 1029.5  " fill-rule="nonzero" fill="#797979" stroke="none" />
</svg>