<?xml version="1.0" encoding="utf-8"?>
<svg version="1.1" xmlns:xlink="http://www.w3.org/1999/xlink" width="55px" height="26px" xmlns="http://www.w3.org/2000/svg">
  <g transform="matrix(1 0 0 1 -1405 -567 )">
    <path d="M 1.38247282608696 11.4980744544288  C 0.460824275362317 11.8874625588361  0 12.3881044073599  0 13  C 0 13.6007702182285  0.460824275362317 14.1069747539581  1.38247282608696 14.5186136071887  L 25.7065217391304 25.382541720154  C 26.6779891304348 25.7941805733847  27.8113677536232 26  29.1066576086957 26  C 30.3770380434783 26  31.4979619565217 25.7941805733847  32.4694293478261 25.382541720154  L 35.2717391304348 24.1309370988447  C 36.2182971014493 23.7081728712024  36.6915760869565 23.2019683354728  36.6915760869565 22.612323491656  C 36.6915760869565 22.0226786478391  36.2182971014493 21.5164741121095  35.2717391304348 21.0937098844673  L 24.3240489130435 16  L 50.6283967391304 16  C 51.9236865942029 16.204107830552  52.9761096014493 15.9955070603338  53.7856657608696 15.5783055198973  C 54.5952219202899 15.1611039794608  55 14.6576807873342  55 14.0680359435173  L 55 11.9319640564827  C 55 11.3423192126658  54.5952219202899 10.8388960205392  53.7856657608696 10.4216944801027  C 52.9761096014493 10.0044929396662  51.9236865942029 9.79589216944801  50.6283967391304 10  L 24.3240489130435 10  L 35.2717391304348 4.88960205391528  C 36.2182971014493 4.48908857509628  36.6915760869565 3.98844672657253  36.6915760869565 3.38767650834403  C 36.6915760869565 2.78690629011553  36.2182971014493 2.28626444159178  35.2717391304348 1.88575096277278  L 32.4694293478261 0.634146341463415  C 31.5228713768116 0.211382113821136  30.4019474637681 0  29.1066576086957 0  C 27.7864583333333 0  26.6530797101449 0.211382113821136  25.7065217391304 0.634146341463415  L 1.38247282608696 11.4980744544288  Z " fill-rule="nonzero" fill="#81d3f8" stroke="none" transform="matrix(1 0 0 1 1405 567 )" />
  </g>
</svg>