<svg t="1740401491685" class="icon" viewBox="0 0 1185 1024" version="1.1" xmlns="http://www.w3.org/2000/svg" p-id="4617" width="200" height="200"><path d="M748.759579 543.420632l-303.481263 303.427368c-42.361263 42.361263-91.728842 70.602105-155.216842 70.602105-63.595789 0-112.963368-28.240842-155.324632-70.602105-84.668632-84.614737-84.668632-225.818947 0-310.487579l423.450947-423.450947c28.240842-28.240842 63.541895-42.361263 98.789053-42.361263 35.301053 0 70.602105 14.120421 98.842947 42.361263 49.367579 49.421474 49.367579 141.204211 0 190.571789l-423.450947 423.397053a53.894737 53.894737 0 0 1-35.301053 14.120421 53.894737 53.894737 0 0 1-35.301052-14.120421c-21.180632-21.126737-21.180632-49.367579 0-70.548211l423.450947-423.450947a34.115368 34.115368 0 0 0 0-49.367579c-7.006316-7.060211-14.120421-14.120421-28.240842-14.120421-7.006316 0-21.180632 7.006316-28.240842 14.120421L205.338947 606.854737c-21.180632 21.180632-35.301053 56.481684-35.301052 84.722526 0 35.247158 14.120421 63.488 35.301052 84.668632s56.427789 35.301053 84.668632 35.301052c35.301053 0 63.541895-14.120421 84.668632-35.301052l423.450947-423.450948c42.361263-42.307368 63.541895-91.728842 63.541895-148.210526 0-56.427789-21.180632-105.849263-63.541895-148.210526C762.826105 21.234526 713.458526 0 656.976842 0c-56.427789 0-105.849263 21.180632-148.210526 63.541895L85.369263 486.938947a282.624 282.624 0 0 0-84.722526 204.692211c0 77.608421 28.240842 155.216842 84.722526 204.638316C141.743158 959.865263 212.345263 987.998316 289.953684 987.998316s155.216842-28.186947 204.692211-84.614737l303.427368-303.535158a34.115368 34.115368 0 0 0 0-49.367579c-14.120421-21.180632-35.301053-14.120421-49.367579-7.06021z" fill="#ffffff" p-id="4618"></path><path d="M754.526316 700.631579m35.947789 0l359.262316 0q35.947789 0 35.94779 35.947789l0-0.053894q0 35.947789-35.94779 35.947789l-359.262316 0q-35.947789 0-35.947789-35.947789l0 0.053894q0-35.947789 35.947789-35.947789Z" fill="#ffffff" p-id="4619"></path><path d="M934.157474 916.210526V556.894316a35.947789 35.947789 0 1 1 71.841684 0V916.210526a35.947789 35.947789 0 1 1-71.841684 0z" fill="#ffffff" p-id="4620"></path></svg>