<svg t="1740401692935" class="icon" viewBox="0 0 1024 1024" version="1.1" xmlns="http://www.w3.org/2000/svg" p-id="8636" width="200" height="200"><path d="M123.4 467.2c25 0 45.2-20.4 45.2-45.2 0-181.2 147.4-328.6 328.6-328.6 181 0 328.4 147.4 328.4 328.6 0 62.6-17.8 123.6-51.2 176.2-13.4 21-7.2 49.2 13.8 62.6 7.2 4.8 15.6 7.2 24.4 7.2 15.4 0 30.2-8 38.4-20.8 42.8-67 65.4-145 65.4-225 0.2-112-43.4-217.2-122.6-296.6C714.6 46.2 609.4 2.4 497.6 2.4 266.4 2.4 78.2 190.6 78.2 421.8c0 25 20.4 45.4 45.2 45.4z" p-id="8637" fill="#ffffff"></path><path d="M626 271.4c7.2-7 11.2-16.2 11.2-26.2s-3.8-19.6-11-26.8c-7-7-16.4-11-26.6-11s-19.4 3.8-26.4 11L498 293.6l-76.2-76.2c-7-7-16.4-11-26.6-11s-19.4 3.8-26.6 11c-7 7-11 16.4-11 26.6 0 10 3.8 19.4 11 26.6l91.2 91.2v18.8h-64.2c-20.8 0.2-37.6 17.2-37.6 37.8 0 20.8 17 37.6 37.8 37.6H460v41.4h-64c-20.8 0-37.8 16.8-37.8 37.6s16.8 37.6 37.6 37.6H460v78.6c0 20.8 16.8 37.6 37.6 37.6s37.6-16.8 37.6-37.6v-78.6h64.2c20.8 0 37.6-16.8 37.6-37.6s-16.8-37.6-37.6-37.6h-64.2V456h64.2c20.8 0 37.6-16.8 37.6-37.6s-16.8-37.6-37.6-37.6h-64.2v-18.4l90.8-91z" p-id="8638" fill="#ffffff"></path><path d="M986 756.6c-88.4-18-208.4-68.8-243.2-84-0.2-0.2-0.6-0.2-0.8-0.4-51.4-34.2-92.2-51-124.8-51-29.2 0-53.6 13.4-67.2 36.8-16.8 29.6-11.4 68.8 2.6 92.4 3.8 6.4 10.2 16.4 19.6 30-232-17-273.2-71.6-321-134.4-14-18.4-31.4-41.6-54.6-64-42.4-41.2-77.4-60.2-110.4-60.2-26.4 0-49.2 12.6-64.6 35.4-30.8 47-18.8 126.6-9 149 47.4 109.4 131 198.2 241.6 256.6 81.8 43.2 150.8 56 163.6 58.2h0.4c2 0.2 4.2 0.4 6.6 0.4h551.8c25 0 45.2-20.4 45.2-45.2v-175c0.4-21.4-14.8-40.2-35.8-44.6zM429 930.8c-28.2-5.6-243.6-54.2-333-259.8-3.6-10-4.6-38.6-1.6-54.4 7.4 4 19.8 12.6 38.8 30.8 16.8 16 29.8 33.2 43.6 51.2l2 2.6C243.2 786 304 866.2 661.6 876h3c16.4 0 30.4-8.8 38.4-24.2 8.2-15.2 6.8-34-3.4-47.8l-1-1.4c-12.6-17.6-42.4-59-58.8-83.6 12.2 5.2 30 14.4 54.8 31l0.2 0.2 0.2 0.2c4.2 2.4 130 58 236.4 86.8l0.2 93.8H429z" p-id="8639" fill="#ffffff"></path></svg>