<svg t="1712815162226" class="icon" viewBox="0 0 1024 1024" version="1.1" xmlns="http://www.w3.org/2000/svg" p-id="1814" width="200" height="200"><path d="M1024 925.696h-340.992V809.984H911.36V198.656h-228.352v-112.64H1024v839.68z" fill="#ffffff" p-id="1815"></path><path d="M542.72 430.08h268.288v151.552H542.72V430.08z" fill="#ffffff" p-id="1816"></path><path d="M607.232 719.872l-179.2-212.992 179.2-216.064v429.056z" fill="#ffffff" p-id="1817"></path><path d="M531.456 10.24L0 144.384v720.896l531.456 136.192v-266.24l-202.752-224.256 202.752-236.544V10.24z m-288.768 486.4l132.096 241.664-108.544-27.648-70.656-128-52.224 96.256-88.064-22.528 91.136-163.84-88.064-158.72 82.944-20.48 51.2 94.208 69.632-124.928 113.664-28.672-133.12 242.688z" fill="#ffffff" p-id="1818"></path></svg>