<svg t="1712815945272" class="icon" viewBox="0 0 1024 1024" version="1.1" xmlns="http://www.w3.org/2000/svg" p-id="2007" width="200" height="200"><path d="M595.2 83.2v51.2h384v748.8h-384v51.2H1024V83.2z" fill="#ffffff" p-id="2008"></path><path d="M595.2 256h83.2v83.2H595.2V256z m128 0h128v83.2h-128V256z m-128 128h83.2v83.2H595.2V384z m128 0h128v83.2h-128V384z m-128 128h83.2v83.2H595.2V512z m128 0h128v83.2h-128V512z m-128 128h83.2v83.2H595.2V640z m128 0h128v83.2h-128V640z m-128 384L0 883.2V140.8L595.2 0v1024z m-236.8-300.8l96 6.4-108.8-211.2 108.8-211.2H364.8l-57.6 128c0 6.4-6.4 12.8-6.4 19.2 0 6.4 0 12.8-6.4 19.2 0-6.4 0-12.8-6.4-19.2 0-6.4-6.4-12.8-6.4-19.2L236.8 320H147.2l96 198.4-102.4 192 89.6 6.4 57.6-128v-25.6 12.8c0 6.4 0 6.4 6.4 12.8l64 134.4z" fill="#ffffff" p-id="2009"></path></svg>