<svg t="1740455709764" class="icon" viewBox="0 0 1024 1024" version="1.1" xmlns="http://www.w3.org/2000/svg" p-id="3391" width="200" height="200"><path d="M516.636444 967.111111a58.126222 58.126222 0 0 1-24.32-5.575111 1013.034667 1013.034667 0 0 1-208.056888-137.258667 528.142222 528.142222 0 0 1-99.697778-112.113777 245.077333 245.077333 0 0 1-42.339556-130.844445V232.561778a54.912 54.912 0 0 1 35.555556-51.925334A876.643556 876.643556 0 0 1 516.636444 113.777778a876.444444 876.444444 0 0 1 338.844445 66.844444 54.897778 54.897778 0 0 1 35.555555 51.911111v348.771556a245.091556 245.091556 0 0 1-42.325333 130.844444 528.056889 528.056889 0 0 1-99.697778 112.113778 1012.622222 1012.622222 0 0 1-208.042666 137.244445 58.311111 58.311111 0 0 1-24.32 5.603555z m3.029334-304l123.491555 59.278222a24.277333 24.277333 0 0 0 25.244445-1.706666c7.296-5.148444 11.008-14.023111 9.543111-22.826667l-24.888889-129.422222 98.574222-89.941334a22.855111 22.855111 0 0 0 6.826667-23.836444 23.367111 23.367111 0 0 0-19.128889-16.014222l-136.448-23.509334-61.724444-119.907555a24.177778 24.177778 0 0 0-21.333334-12.714667 24.177778 24.177778 0 0 0-21.333333 12.714667l-61.056 119.893333-136.448 24.177778a23.537778 23.537778 0 0 0-20.110222 16.028444 22.883556 22.883556 0 0 0 6.129777 23.850667l99.555556 89.244445-25.6 129.422222c-1.450667 8.817778 2.261333 17.664 9.543111 22.826666 4.252444 2.702222 9.187556 4.152889 14.222222 4.124445 3.84 0.014222 7.608889-0.810667 11.093334-2.417778l123.804444-59.278222h0.042667z" fill="#ffffff" p-id="3392"></path></svg>