<svg t="1733887741071" class="icon" viewBox="0 0 1024 1024" version="1.1" xmlns="http://www.w3.org/2000/svg" p-id="9164" width="200" height="200"><path d="M507.845 1004.826c-270.93 0-491.402-220.472-491.402-491.401S236.915 22.023 507.845 22.023c20.302 0 36.804 16.503 36.804 36.805s-16.502 36.805-36.804 36.805C277.519 95.633 90.17 282.98 90.17 513.306S277.52 931.098 507.845 931.098 925.518 743.75 925.518 513.425c0-20.302 16.503-36.805 36.805-36.805s36.804 16.503 36.804 36.805c0.119 270.93-220.353 491.401-491.282 491.401z" fill="#ffffff" p-id="9165"></path><path d="M655.3 478.4H360.39c-20.302 0-36.805-16.502-36.805-36.804s16.503-36.804 36.805-36.804h294.793c20.302 0 36.805 16.502 36.805 36.804s-16.384 36.805-36.686 36.805z m0 142.47H360.39c-20.302 0-36.805-16.502-36.805-36.804s16.503-36.805 36.805-36.805h294.793c20.302 0 36.805 16.503 36.805 36.805S675.603 620.87 655.3 620.87z" fill="#ffffff" p-id="9166"></path><path d="M507.845 768.326c-20.302 0-36.805-16.502-36.805-36.804V436.61c0-20.302 16.503-36.805 36.805-36.805s36.804 16.503 36.804 36.805v294.793c0 20.42-16.502 36.923-36.804 36.923z" fill="#ffffff" p-id="9167"></path><path d="M507.845 453.825c-9.38 0-18.878-3.562-26.001-10.804L360.15 321.447c-14.365-14.366-14.365-37.754 0-52.12 14.366-14.366 37.755-14.366 52.12 0L533.845 390.9c14.366 14.366 14.366 37.754 0 52.12-7.123 7.242-16.621 10.804-26 10.804z" fill="#ffffff" p-id="9168"></path><path d="M507.845 453.825c-9.38 0-18.878-3.562-26.001-10.804-14.366-14.366-14.366-37.754 0-52.12l121.574-121.574c14.366-14.366 37.754-14.366 52.12 0s14.366 37.754 0 52.12L533.845 443.021c-7.123 7.242-16.621 10.804-26 10.804z m202.069-236.5c9.38 0 18.877-3.561 26-10.803L857.49 84.947c14.365-14.365 14.365-37.754 0-52.12-14.366-14.365-37.755-14.365-52.12 0L683.913 154.52c-14.365 14.366-14.365 37.755 0 52.12 7.124 7.124 16.622 10.685 26.001 10.685z" fill="#ffffff" p-id="9169"></path><path d="M831.488 339.018c9.38 0 18.877-3.562 26-10.804 14.366-14.365 14.366-37.754 0-52.12L735.916 154.52c-14.366-14.366-37.755-14.366-52.12 0-14.366 14.366-14.366 37.755 0 52.12l121.574 121.574c7.242 7.124 16.74 10.804 26.119 10.804z" fill="#ffffff" p-id="9170"></path><path d="M716.681 217.325h245.642c20.301 0 36.804-16.502 36.804-36.804s-16.503-36.805-36.804-36.805H716.68c-20.302 0-36.804 16.503-36.804 36.805s16.384 36.804 36.804 36.804z" fill="#ffffff" p-id="9171"></path></svg>