<svg t="1726217355758" class="icon" viewBox="0 0 1075 1024" version="1.1" xmlns="http://www.w3.org/2000/svg" p-id="8862" width="200" height="200"><path d="M650.75199999 871.93599966a227.57181 227.57181 0 1 1 160.914286 66.657524 226.03581 226.03581 0 0 1-160.914286-66.657524z m-25.283048-160.914285a186.172952 186.172952 0 1 0 186.172953-186.172953 186.392381 186.392381 0 0 0-186.148572 186.172953z m41.447619 227.059809H63.99999999V161.47504766h206.482286V91.42857166h59.635809v70.046476h100.985905V91.42857166h59.611429v70.046476h100.985904V91.42857166h59.660191v70.046476H844.19047599V440.07619066a272.822857 272.822857 0 0 0-32.499809-1.926095c-5.90019 0-11.873524 0.170667-17.700572 0.560761V209.35923766H114.24914299v677.522286h493.104762a272.676571 272.676571 0 0 0 59.489524 51.2z m37.668572-138.971428a95.085714 95.085714 0 0 0 27.818667-41.984 267.995429 267.995429 0 0 0 5.534476-62.829715v-77.824a14.189714 14.189714 0 0 1 13.897143-13.921524h144.262095a13.897143 13.897143 0 0 1 13.921524 13.921524v162.060191a48.591238 48.591238 0 0 1-8.630858 31.402666 31.695238 31.695238 0 0 1-24.185904 11.678477h-51.980191a263.753143 263.753143 0 0 0-9.191619-36.132572c15.579429 0 29.257143 1.389714 40.886857 1.389714a15.993905 15.993905 0 0 0 18.334477-17.212952v-17.066667H769.34095199a108.78781 108.78781 0 0 1-11.117714 41.155048 139.459048 139.459048 0 0 1-23.064381 31.134476c-10.435048-9.020952-20.675048-17.627429-30.671238-25.697524zM771.04761899 721.26171466h103.960381v-27.794286H771.04761899z m0-58.928762h103.66781l0.26819-27.818667H771.04761899zM227.01104799 764.53790466v-47.37219h190.854095v47.37219z m0-114.590476v-47.372191h284.355047v47.372191z m0-148.72381l98.937904-102.595047 43.885715 43.885714 157.574095-153.892571 153.892571 153.892571-34.523428 33.304381-119.466667-119.808-156.988952 157.793524-27.233524-26.185143-17.310476-17.261714-61.732572 65.024z" fill="#ffffff" p-id="8863"></path></svg>