<svg t="1725862129322" class="icon" viewBox="0 0 1024 1024" version="1.1" xmlns="http://www.w3.org/2000/svg" p-id="5278" width="200" height="200"><path d="M307.2 153.6c56.32 0 102.4 46.08 102.4 102.4s-46.08 102.4-102.4 102.4-102.4-46.08-102.4-102.4 46.08-102.4 102.4-102.4m0-102.4C194.56 51.2 102.4 143.36 102.4 256s92.16 204.8 204.8 204.8 204.8-92.16 204.8-204.8-92.16-204.8-204.8-204.8zM409.6 665.6c56.32 0 102.4 46.08 102.4 102.4v102.4H102.4v-102.4c0-56.32 46.08-102.4 102.4-102.4h204.8m0-102.4H204.8c-112.64 0-204.8 92.16-204.8 204.8v102.4c0 56.32 46.08 102.4 102.4 102.4h409.6c56.32 0 102.4-46.08 102.4-102.4v-102.4c0-112.64-92.16-204.8-204.8-204.8zM768 153.6h204.8c30.72 0 51.2 20.48 51.2 51.2s-20.48 51.2-51.2 51.2h-204.8c-30.72 0-51.2-20.48-51.2-51.2s20.48-51.2 51.2-51.2z m0 307.2h204.8c30.72 0 51.2 20.48 51.2 51.2s-20.48 51.2-51.2 51.2h-204.8c-30.72 0-51.2-20.48-51.2-51.2s20.48-51.2 51.2-51.2z m0 307.2h204.8c30.72 0 51.2 20.48 51.2 51.2s-20.48 51.2-51.2 51.2h-204.8c-30.72 0-51.2-20.48-51.2-51.2s20.48-51.2 51.2-51.2z" fill="#ffffff" p-id="5279"></path></svg>