<?xml version="1.0" encoding="utf-8"?>
<svg version="1.1" xmlns:xlink="http://www.w3.org/1999/xlink" width="55px" height="40px" xmlns="http://www.w3.org/2000/svg">
  <g transform="matrix(1 0 0 1 -919 -244 )">
    <path d="M 1.38247282608696 17.6893453145058  C 0.460824275362317 18.2884039366709  0 19.058622165169  0 20  C 0 20.9242618741977  0.460824275362317 21.7030380830124  1.38247282608696 22.3363286264442  L 25.7065217391304 39.0500641848524  C 26.6779891304348 39.6833547282841  27.8113677536232 40  29.1066576086957 40  C 30.3770380434783 40  31.4979619565217 39.6833547282841  32.4694293478261 39.0500641848524  L 35.2717391304348 37.1245186136072  C 36.2182971014493 36.4741121095421  36.6915760869565 35.6953359007274  36.6915760869565 34.788189987163  C 36.6915760869565 33.8810440735986  36.2182971014493 33.1022678647839  35.2717391304348 32.4518613607189  L 24.3240489130435 25  L 50.6283967391304 25  C 51.9236865942029 24.9293966623877  52.9761096014493 24.6084724005135  53.7856657608696 23.9666238767651  C 54.5952219202899 23.3247753530167  55 22.5502781343603  55 21.6431322207959  L 55 18.3568677792041  C 55 17.4497218656397  54.5952219202899 16.6752246469833  53.7856657608696 16.0333761232349  C 52.9761096014493 15.3915275994865  51.9236865942029 15.0706033376123  50.6283967391304 15  L 24.3240489130435 15  L 35.2717391304348 7.52246469833119  C 36.2182971014493 6.90629011553273  36.6915760869565 6.13607188703466  36.6915760869565 5.21181001283697  C 36.6915760869565 4.28754813863928  36.2182971014493 3.51732991014121  35.2717391304348 2.90115532734275  L 32.4694293478261 0.975609756097562  C 31.5228713768116 0.325203252032518  30.4019474637681 0  29.1066576086957 0  C 27.7864583333333 0  26.6530797101449 0.325203252032518  25.7065217391304 0.975609756097562  L 1.38247282608696 17.6893453145058  Z " fill-rule="nonzero" fill="#ec808d" stroke="none" fill-opacity="0.498039215686275" transform="matrix(1 0 0 1 919 244 )" />
  </g>
</svg>