<?xml version="1.0" encoding="utf-8"?>
<svg version="1.1" xmlns:xlink="http://www.w3.org/1999/xlink" width="55px" height="40px" xmlns="http://www.w3.org/2000/svg">
  <g transform="matrix(1 0 0 1 -274 -244 )">
    <path d="M 53.617527173913 17.6893453145058  C 54.5391757246377 18.2884039366709  55 19.058622165169  55 20  C 55 20.9242618741977  54.5391757246377 21.7030380830124  53.617527173913 22.3363286264442  L 29.2934782608696 39.0500641848524  C 28.3220108695652 39.6833547282841  27.1886322463768 40  25.8933423913043 40  C 24.6229619565217 40  23.5020380434783 39.6833547282841  22.5305706521739 39.0500641848524  L 19.7282608695652 37.1245186136072  C 18.7817028985507 36.4741121095421  18.3084239130435 35.6953359007274  18.3084239130435 34.788189987163  C 18.3084239130435 33.8810440735986  18.7817028985507 33.1022678647839  19.7282608695652 32.4518613607189  L 30.6759510869565 25  L 4.37160326086957 25  C 3.0763134057971 24.9293966623877  2.02389039855073 24.6084724005135  1.21433423913043 23.9666238767651  C 0.404778079710145 23.3247753530167  0 22.5502781343603  0 21.6431322207959  L 0 18.3568677792041  C 0 17.4497218656397  0.404778079710145 16.6752246469833  1.21433423913043 16.0333761232349  C 2.02389039855073 15.3915275994865  3.0763134057971 15.0706033376123  4.37160326086957 15  L 30.6759510869565 15  L 19.7282608695652 7.52246469833119  C 18.7817028985507 6.90629011553273  18.3084239130435 6.13607188703466  18.3084239130435 5.21181001283697  C 18.3084239130435 4.28754813863928  18.7817028985507 3.51732991014121  19.7282608695652 2.90115532734275  L 22.5305706521739 0.975609756097562  C 23.4771286231884 0.325203252032518  24.5980525362319 0  25.8933423913043 0  C 27.2135416666667 0  28.3469202898551 0.325203252032518  29.2934782608696 0.975609756097562  L 53.617527173913 17.6893453145058  Z " fill-rule="nonzero" fill="#81d3f8" stroke="none" transform="matrix(1 0 0 1 274 244 )" />
  </g>
</svg>