<?xml version="1.0" encoding="utf-8"?>
<svg version="1.1" xmlns:xlink="http://www.w3.org/1999/xlink" width="55px" height="40px" xmlns="http://www.w3.org/2000/svg">
  <g transform="matrix(1 0 0 1 -1218 -694 )">
    <path d="M 53.7856657608696 16.0333761232349  C 54.5952219202898 16.6752246469833  55 17.4497218656397  55 18.3568677792041  L 55 21.6431322207959  C 55 22.5502781343603  54.5952219202898 23.3247753530167  53.7856657608696 23.9666238767651  C 52.9761096014493 24.6084724005135  51.9236865942029 24.9293966623877  50.6283967391304 25  L 24.3240489130435 25  L 35.2717391304348 32.4775353016688  C 36.2182971014493 33.0937098844673  36.6915760869565 33.8639281129653  36.6915760869565 34.788189987163  C 36.6915760869565 35.7124518613607  36.2182971014493 36.4826700898588  35.2717391304348 37.0988446726573  L 32.4694293478261 39.0500641848524  C 31.5477807971015 39.6833547282841  30.426856884058 40  29.1066576086957 40  C 27.8113677536232 40  26.6779891304348 39.6833547282841  25.7065217391304 39.0500641848524  L 1.38247282608696 22.3106546854942  C 0.460824275362319 21.6773641420625  0 20.9071459135644  0 20  C 0 19.1099700470689  0.460824275362319 18.3311938382542  1.38247282608696 17.6636713735558  L 25.7065217391304 0.975609756097562  C 26.6530797101449 0.325203252032518  27.7864583333333 0  29.1066576086957 0  C 30.4019474637681 0  31.5228713768116 0.325203252032518  32.4694293478261 0.975609756097562  L 35.2717391304348 2.87548138639281  C 36.2182971014493 3.52588789045785  36.6915760869565 4.30466409927257  36.6915760869565 5.21181001283697  C 36.6915760869565 6.11895592640137  36.2182971014493 6.89773213521609  35.2717391304348 7.54813863928113  L 24.3240489130435 15  L 50.6283967391304 15  C 51.9236865942029 15.0706033376123  52.9761096014493 15.3915275994865  53.7856657608696 16.0333761232349  Z " fill-rule="nonzero" fill="#ec808d" stroke="none" fill-opacity="0.501960784313725" transform="matrix(1 0 0 1 1218 694 )" />
  </g>
</svg>