<?xml version="1.0" standalone="no"?><!DOCTYPE svg PUBLIC "-//W3C//DTD SVG 1.1//EN" "http://www.w3.org/Graphics/SVG/1.1/DTD/svg11.dtd"><svg t="1659493852353" class="icon" viewBox="0 0 1024 1024" version="1.1" xmlns="http://www.w3.org/2000/svg" p-id="8757" xmlns:xlink="http://www.w3.org/1999/xlink" width="200" height="200"><defs><style type="text/css">@font-face { font-family: "feedback-iconfont"; src: url("//at.alicdn.com/t/font_1031158_u69w8yhxdu.woff2?t=1630033759944") format("woff2"), url("//at.alicdn.com/t/font_1031158_u69w8yhxdu.woff?t=1630033759944") format("woff"), url("//at.alicdn.com/t/font_1031158_u69w8yhxdu.ttf?t=1630033759944") format("truetype"); }
</style></defs><path d="M584.533333 853.333333h-149.333333c-29.866667 0-55.466667 34.133333-38.4 64 25.6 38.4 68.266667 64 115.2 64s89.6-25.6 110.933333-64c17.066667-29.866667-4.266667-64-38.4-64zM930.133333 712.533333l-17.066666-21.333333C844.8 601.6 810.666667 494.933333 810.666667 384v-29.866667c0-153.6-110.933333-290.133333-264.533334-307.2C366.933333 25.6 213.333333 166.4 213.333333 341.333333v42.666667c0 110.933333-34.133333 217.6-102.4 307.2l-17.066666 21.333333c-8.533333 8.533333-12.8 25.6-8.533334 34.133334 12.8 38.4 46.933333 64 85.333334 64h682.666666c38.4 0 72.533333-25.6 81.066667-64 4.266667-12.8 0-25.6-4.266667-34.133334z" p-id="8758" fill="#ffffff"></path></svg>