<?xml version="1.0" standalone="no"?><!DOCTYPE svg PUBLIC "-//W3C//DTD SVG 1.1//EN" "http://www.w3.org/Graphics/SVG/1.1/DTD/svg11.dtd"><svg t="1659509212245" class="icon" viewBox="0 0 1024 1024" version="1.1" xmlns="http://www.w3.org/2000/svg" p-id="34008" xmlns:xlink="http://www.w3.org/1999/xlink" width="32" height="32"><defs><style type="text/css">@font-face { font-family: "feedback-iconfont"; src: url("//at.alicdn.com/t/font_1031158_u69w8yhxdu.woff2?t=1630033759944") format("woff2"), url("//at.alicdn.com/t/font_1031158_u69w8yhxdu.woff?t=1630033759944") format("woff"), url("//at.alicdn.com/t/font_1031158_u69w8yhxdu.ttf?t=1630033759944") format("truetype"); }
</style></defs><path d="M772.84 941.91H543.16V712.52c0-17.79-14.55-32.34-32.34-32.34H70.03V82.09h876.25v300.93c0 19.35 15.68 35.05 35.02 35.05 19.33 0 35.02-15.7 35.02-35.05V47.05c0-19.35-15.68-35.05-35.02-35.05H35.02C15.68 12 0 27.7 0 47.05v668.18c0 19.35 15.68 35.05 35.02 35.05h438.11v191.64H243.47c-19.33 0-35.02 15.7-35.02 35.05 0 19.35 15.68 35.05 35.02 35.05h529.37c19.33 0 35.02-15.7 35.02-35.05 0-19.36-15.68-35.06-35.02-35.06z" p-id="34009"></path><path d="M692.76 257.66c0-19.35-15.68-35.05-35.02-35.05H228.79c-19.33 0-35.02 15.7-35.02 35.05s15.68 35.05 35.02 35.05h428.95c19.33 0 35.02-15.7 35.02-35.05zM1013.74 792.62L865.01 643.76c15.66-25.48 24.85-55.34 24.85-87.38 0-92.36-75.09-167.5-167.38-167.5s-167.35 75.13-167.35 167.5 75.07 167.5 167.35 167.5c34.97 0 67.44-10.82 94.32-29.24l147.42 147.55a34.917 34.917 0 0 0 24.76 10.27c8.96 0 17.92-3.42 24.76-10.27 13.68-13.7 13.68-35.88 0-49.57zM722.49 653.78c-53.66 0-97.32-43.69-97.32-97.4s43.66-97.4 97.32-97.4 97.34 43.69 97.34 97.4-43.68 97.4-97.34 97.4zM228.79 407.32c-19.33 0-35.02 15.7-35.02 35.05s15.68 35.05 35.02 35.05h241.83c19.33 0 35.02-15.7 35.02-35.05s-15.68-35.05-35.02-35.05H228.79z" p-id="34010"></path></svg>