<?xml version="1.0" encoding="utf-8"?>
<svg version="1.1" xmlns:xlink="http://www.w3.org/1999/xlink" width="16px" height="16px" xmlns="http://www.w3.org/2000/svg">
  <g transform="matrix(1 0 0 1 -66 -8 )">
    <path d="M 74 8  C 78.48 8  82 11.52  82 16  C 82 20.48  78.48 24  74 24  C 69.52 24  66 20.48  66 16  C 66 11.52  69.52 8  74 8  Z " fill-rule="nonzero" fill="#ecf5ff" stroke="none" />
    <path d="M 74 8.5  C 78.2 8.5  81.5 11.8  81.5 16  C 81.5 20.2  78.2 23.5  74 23.5  C 69.8 23.5  66.5 20.2  66.5 16  C 66.5 11.8  69.8 8.5  74 8.5  Z " stroke-width="1" stroke="#ecf5ff" fill="none" />
  </g>
</svg>