<?xml version="1.0" encoding="utf-8"?>
<svg version="1.1" xmlns:xlink="http://www.w3.org/1999/xlink" width="10px" height="11px" xmlns="http://www.w3.org/2000/svg">
  <g transform="matrix(1 0 0 1 -133 -14 )">
    <path d="M 4.23896871527776 10.0352188083333  L 4.23896871527776 10.0642020483333  C 4.14286095568573 10.2382293958691  3.98963038018068 10.3497812574842  3.82094128472222 10.368526025  C 3.66548619258804 10.3653616675496  3.51815556184435 10.281307431479  3.41452572916668 10.1366601266667  L 0.221260607638876 5.96307423833333  C -0.00699593479938895 5.62364892272018  -0.00699593479938895 5.12867852894648  0.221260607638876 4.78925321333332  C 0.324956631873916 4.63506761254896  0.477991680742284 4.54602429731229  0.639288046875002 4.54602429731229  C 0.800584413007719 4.54602429731229  0.953619461876113 4.63506761254896  1.0573154861111 4.78925321333332  L 3.7512700520833 8.41215762833333  L 8.89532984374997 0.340326588333333  C 8.99422200110978 0.136536253609211  9.17124993730237 0.0120468546158676  9.36215420167767 0.0120468546158676  C 9.48832118728585 0.0120468546158676  9.61059114788366 0.0666009173857454  9.70816097222222 0.166427169999999  C 9.96099925059657 0.480607812967072  9.99534444821793 0.976591741815277  9.7894440798611 1.340248195  L 4.23896871527776 10.0352188083333  Z " fill-rule="nonzero" fill="#ecf5ff" stroke="none" transform="matrix(1 0 0 1 133 14 )" />
  </g>
</svg>