<?xml version="1.0" encoding="utf-8"?>
<svg version="1.1" xmlns:xlink="http://www.w3.org/1999/xlink" width="14px" height="14px" xmlns="http://www.w3.org/2000/svg">
  <g transform="matrix(1 0 0 1 -250 -164 )">
    <path d="M 14 1.02368000000001  L 10.4896842105263 1.02368000000001  L 10.4896842105263 0.029120000000006  L 9.61726315789473 0.029120000000006  L 9.61726315789473 1.02368000000001  L 4.38273684210525 1.02368000000001  L 4.38273684210525 0.029120000000006  L 3.51031578947369 0.029120000000006  L 3.51031578947369 1.02368000000001  L 0 1.02368000000001  L 0 14  L 14 14  L 14 1.02368000000001  Z M 13.1148070175439 6  L 13.1148070175439 13  L 0.885192982456125 13  L 0.885192982456125 6  L 13.1148070175439 6  Z M 13.1069473684211 5.01088000000001  L 13.1148070175439 5  L 0.885192982456125 5  L 0.885192982456125 1.91968000000001  L 3.50245614035086 1.91968000000001  L 3.50245614035086 3.01279999999998  L 4.37487719298246 3.01279999999998  L 4.37487719298246 1.91968000000001  L 9.61726315789473 1.91968000000001  L 9.61726315789473 3.01279999999998  L 10.4896842105263 3.01279999999998  L 10.4896842105263 1.91968000000001  L 13.1069473684211 1.91968000000001  L 13.1069473684211 5.01088000000001  Z " fill-rule="nonzero" fill="#1278ff" stroke="none" transform="matrix(1 0 0 1 250 164 )" />
  </g>
</svg>