<?xml version="1.0" encoding="utf-8"?>
<svg version="1.1" xmlns:xlink="http://www.w3.org/1999/xlink" width="55px" height="26px" xmlns="http://www.w3.org/2000/svg">
  <g transform="matrix(1 0 0 1 -1106 -188 )">
    <path d="M 53.617527173913 11.4980744544288  C 54.5391757246377 11.8874625588361  55 12.3881044073599  55 13  C 55 13.6007702182285  54.5391757246377 14.1069747539581  53.617527173913 14.5186136071887  L 29.2934782608696 25.382541720154  C 28.3220108695652 25.7941805733847  27.1886322463768 26  25.8933423913043 26  C 24.6229619565217 26  23.5020380434783 25.7941805733847  22.5305706521739 25.382541720154  L 19.7282608695652 24.1309370988447  C 18.7817028985507 23.7081728712024  18.3084239130435 23.2019683354728  18.3084239130435 22.612323491656  C 18.3084239130435 22.0226786478391  18.7817028985507 21.5164741121095  19.7282608695652 21.0937098844673  L 30.6759510869565 16  L 4.37160326086957 16  C 3.0763134057971 16.204107830552  2.02389039855073 15.9955070603338  1.21433423913043 15.5783055198973  C 0.404778079710145 15.1611039794608  0 14.6576807873342  0 14.0680359435173  L 0 11.9319640564827  C 0 11.3423192126658  0.404778079710145 10.8388960205392  1.21433423913043 10.4216944801027  C 2.02389039855073 10.0044929396662  3.0763134057971 9.79589216944801  4.37160326086957 10  L 30.6759510869565 10  L 19.7282608695652 4.88960205391528  C 18.7817028985507 4.48908857509628  18.3084239130435 3.98844672657253  18.3084239130435 3.38767650834403  C 18.3084239130435 2.78690629011553  18.7817028985507 2.28626444159178  19.7282608695652 1.88575096277278  L 22.5305706521739 0.634146341463415  C 23.4771286231884 0.211382113821136  24.5980525362319 0  25.8933423913043 0  C 27.2135416666667 0  28.3469202898551 0.211382113821136  29.2934782608696 0.634146341463415  L 53.617527173913 11.4980744544288  Z " fill-rule="nonzero" fill="#f5bfc6" stroke="none" transform="matrix(1 0 0 1 1106 188 )" />
  </g>
</svg>