<?xml version="1.0" encoding="utf-8"?>
<svg version="1.1" xmlns:xlink="http://www.w3.org/1999/xlink" width="187px" height="158px" xmlns="http://www.w3.org/2000/svg">
  <defs>
    <filter x="1666px" y="1707px" width="187px" height="158px" filterUnits="userSpaceOnUse" id="filter285">
      <feOffset dx="1" dy="1" in="SourceAlpha" result="shadowOffsetInner" />
      <feGaussianBlur stdDeviation="2.5" in="shadowOffsetInner" result="shadowGaussian" />
      <feComposite in2="shadowGaussian" operator="atop" in="SourceAlpha" result="shadowComposite" />
      <feColorMatrix type="matrix" values="0 0 0 0 0  0 0 0 0 0  0 0 0 0 0  0 0 0 0.698039215686274 0  " in="shadowComposite" />
    </filter>
    <g id="widget286">
      <path d="M 1758.5 1858.27957131875  C 1723.3 1821.55665927307  1670.5 1799.52291204567  1670.5 1762.8  C 1670.5 1743.74571428571  1688.1 1711.5  1758.5 1711.5  C 1828.9 1711.5  1846.5 1743.74571428571  1846.5 1762.8  C 1846.5 1799.52291204567  1793.7 1821.55665927307  1758.5 1858.27957131875  Z " fill-rule="nonzero" fill="#ffffff" stroke="none" />
      <path d="M 1758.5 1859  C 1723.1 1822  1670 1799.8  1670 1762.8  C 1670 1743.56  1687.7 1711  1758.5 1711  C 1829.3 1711  1847 1743.56  1847 1762.8  C 1847 1799.8  1793.9 1822  1758.5 1859  Z M 1758.5 1857.55914263749  C 1793.5 1821.11331854615  1846 1799.24582409134  1846 1762.8  C 1846 1743.93142857143  1828.5 1712  1758.5 1712  C 1688.5 1712  1671 1743.93142857143  1671 1762.8  C 1671 1799.24582409134  1723.5 1821.11331854615  1758.5 1857.55914263749  Z " fill-rule="nonzero" fill="#ffffff" stroke="none" />
    </g>
  </defs>
  <g transform="matrix(1 0 0 1 -1666 -1707 )">
    <use xlink:href="#widget286" filter="url(#filter285)" />
    <use xlink:href="#widget286" />
  </g>
</svg>