<?xml version="1.0" encoding="utf-8"?>
<svg version="1.1" xmlns:xlink="http://www.w3.org/1999/xlink" width="15px" height="8px" xmlns="http://www.w3.org/2000/svg">
  <g transform="matrix(1 0 0 1 -10 -11 )">
    <path d="M 14.921875 2.75682704811443  C 14.9739583333333 2.81924577373212  15 2.89900303424361  15 2.99609882964889  L 15 4.99349804941482  C 15 5.09059384482011  14.9739583333333 5.1703511053316  14.921875 5.23276983094928  C 14.8697916666667 5.29518855656697  14.8032407407407 5.32639791937581  14.7222222222222 5.32639791937581  L 3.88888888888889 5.32639791937581  L 3.88888888888889 7.65669700910273  C 3.88888888888889 7.80234070221066  3.83391203703704 7.90290420459471  3.72395833333333 7.95838751625488  C 3.61400462962963 8.01387082791504  3.51273148148148 7.99653229302124  3.42013888888889 7.90637191157347  L 0.0868055555555556 4.26527958387516  C 0.0289351851851853 4.19592544429996  0 4.11616818378847  0 4.0260078023407  C 0 3.92891200693541  0.0289351851851853 3.84568703944517  0.0868055555555556 3.77633289986996  L 3.42013888888889 0.0936280884265281  C 3.51273148148148 -0.00346770697876231  3.61400462962963 -0.0242739488513237  3.72395833333333 0.031209362808843  C 3.83391203703704 0.0936280884265281  3.88888888888889 0.194191590810576  3.88888888888889 0.332899869960988  L 3.88888888888889 2.66319895968791  L 14.7222222222222 2.66319895968791  C 14.8032407407407 2.66319895968791  14.8697916666667 2.69440832249675  14.921875 2.75682704811443  Z " fill-rule="nonzero" fill="#229fff" stroke="none" transform="matrix(1 0 0 1 10 11 )" />
  </g>
</svg>