<?xml version="1.0" standalone="no"?><!DOCTYPE svg PUBLIC "-//W3C//DTD SVG 1.1//EN" "http://www.w3.org/Graphics/SVG/1.1/DTD/svg11.dtd"><svg t="1721634081690" class="icon" viewBox="0 0 1024 1024" version="1.1" xmlns="http://www.w3.org/2000/svg" p-id="21627" xmlns:xlink="http://www.w3.org/1999/xlink" width="200" height="200"><path d="M454.466771 684.579222c-53.466619 0-98.113379 36.768342-110.965056 86.2891H51.78226v57.527089h291.719455c12.851677 49.492105 57.497414 86.288076 110.965056 86.288076s98.100076-36.795971 110.965055-86.288076h406.785914v-57.527089H565.430803c-12.863957-49.521781-57.497414-86.289099-110.964032-86.2891z m287.646704-115.053156c-31.741872 0-57.52709-25.813871-57.52709-57.526066 0-31.739825 25.785218-57.526066 57.52709-57.526066 31.710149 0 57.522996 25.786241 57.522996 57.526066 0 31.713219-25.811824 57.526066-57.522996 57.526066z m0-172.578199c-53.482992 0-98.145101 36.796994-110.980405 86.290123H51.78226v57.526066H631.13307c12.835304 49.493129 57.497414 86.289099 110.980405 86.2891 53.450246 0 98.084726-36.795971 110.951753-86.2891h119.151489v-57.526066H853.065228c-12.867026-49.493129-57.500484-86.290123-110.951753-86.290123zM421.615637 195.605612c-12.851677-49.519735-57.497414-86.289099-110.965055-86.289099s-98.116449 36.770388-110.967103 86.289099H51.78226v57.52709h147.901219c12.851677 49.492105 57.500484 86.288076 110.967103 86.288076s98.113379-36.795971 110.965055-86.288076h550.602103v-57.52709H421.615637z m32.851134 661.552832c-31.727545 0-57.52709-25.813871-57.52709-57.527089 0-31.740848 25.799544-57.52709 57.52709-57.52709s57.539369 25.786241 57.539369 57.52709c0 31.714242-25.811824 57.52709-57.539369 57.527089z m-143.815166-575.262709c-31.728569 0-57.52709-25.813871-57.52709-57.52709 0-31.740848 25.798521-57.52709 57.52709-57.527089 31.724475 0 57.52709 25.786241 57.527089 57.527089-0.001023 31.713219-25.802614 57.52709-57.527089 57.52709z" fill="#707070" p-id="21628"></path></svg>