<?xml version="1.0" encoding="utf-8"?>
<svg version="1.1" xmlns:xlink="http://www.w3.org/1999/xlink" width="12px" height="12px" viewBox="274 149.5  12 12" xmlns="http://www.w3.org/2000/svg">
  <path d="M 280 149.5  C 283.36 149.5  286 152.14  286 155.5  C 286 158.86  283.36 161.5  280 161.5  C 276.64 161.5  274 158.86  274 155.5  C 274 152.14  276.64 149.5  280 149.5  Z " fill-rule="nonzero" fill="#ffffff" stroke="none" />
  <path d="M 280 150  C 283.08 150  285.5 152.42  285.5 155.5  C 285.5 158.58  283.08 161  280 161  C 276.92 161  274.5 158.58  274.5 155.5  C 274.5 152.42  276.92 150  280 150  Z " stroke-width="1" stroke="#797979" fill="none" />
  <path d="M 280 158.5  C 278.32 158.5  277 157.18  277 155.5  C 277 153.82  278.32 152.5  280 152.5  C 281.68 152.5  283 153.82  283 155.5  C 283 157.18  281.68 158.5  280 158.5  " fill-rule="nonzero" fill="#797979" stroke="none" />
</svg>