<?xml version="1.0" standalone="no"?><!DOCTYPE svg PUBLIC "-//W3C//DTD SVG 1.1//EN" "http://www.w3.org/Graphics/SVG/1.1/DTD/svg11.dtd"><svg t="1659512966233" class="icon" viewBox="0 0 1024 1024" version="1.1" xmlns="http://www.w3.org/2000/svg" p-id="35426" xmlns:xlink="http://www.w3.org/1999/xlink" width="16" height="16"><defs><style type="text/css">@font-face { font-family: "feedback-iconfont"; src: url("//at.alicdn.com/t/font_1031158_u69w8yhxdu.woff2?t=1630033759944") format("woff2"), url("//at.alicdn.com/t/font_1031158_u69w8yhxdu.woff?t=1630033759944") format("woff"), url("//at.alicdn.com/t/font_1031158_u69w8yhxdu.ttf?t=1630033759944") format("truetype"); }
</style></defs><path d="M487.253333 535.893333l386.133334-386.133333c13.226667-13.226667 13.226667-34.986667 0-48.213333-13.226667-13.226667-34.986667-13.226667-48.213334 0l-386.133333 386.133333c-13.226667 13.226667-13.226667 34.986667 0 48.213333 13.226667 13.226667 34.986667 13.226667 48.213333 0z" fill="#1296db" p-id="35427"></path><path d="M873.386667 873.813333l-386.133334-386.133333c-13.226667-13.226667-34.986667-13.226667-48.213333 0-13.226667 13.226667-13.226667 34.986667 0 48.213333l386.133333 386.133334c13.226667 13.226667 34.986667 13.226667 48.213334 0 13.226667-13.226667 13.226667-34.986667 0-48.213334z" fill="#1296db" p-id="35428"></path><path d="M218.88 536.32l386.133333-386.133333c13.226667-13.226667 13.226667-34.986667 0-48.213334-13.226667-13.226667-34.986667-13.226667-48.213333 0L170.666667 488.106667c-13.226667 13.226667-13.226667 34.986667 0 48.213333 13.226667 13.653333 34.986667 13.653333 48.213333 0z" fill="#1296db" p-id="35429"></path><path d="M605.013333 874.24l-386.133333-386.133333c-13.226667-13.226667-34.986667-13.226667-48.213333 0-13.226667 13.226667-13.226667 34.986667 0 48.213333l386.133333 386.133333c13.226667 13.226667 34.986667 13.226667 48.213333 0 13.226667-13.226667 13.226667-34.56 0-48.213333z" fill="#1296db" p-id="35430"></path></svg>