<?xml version="1.0" encoding="utf-8"?>
<svg version="1.1" xmlns:xlink="http://www.w3.org/1999/xlink" width="8px" height="11px" xmlns="http://www.w3.org/2000/svg">
  <g transform="matrix(1 0 0 1 -144 -45 )">
    <path d="M 3.39117497222221 10.0352188083333  L 3.39117497222221 10.0642020483333  C 3.31428876454859 10.2382293958691  3.19170430414455 10.3497812574842  3.05675302777778 10.368526025  C 2.93238895407043 10.3653616675496  2.81452444947548 10.281307431479  2.73162058333335 10.1366601266667  L 0.177008486111101 5.96307423833333  C -0.00559674783951116 5.62364892272018  -0.00559674783951116 5.12867852894648  0.177008486111101 4.78925321333332  C 0.259965305499133 4.63506761254896  0.382393344593828 4.54602429731229  0.511430437500001 4.54602429731229  C 0.640467530406175 4.54602429731229  0.762895569500891 4.63506761254896  0.845852388888881 4.78925321333332  L 3.00101604166664 8.41215762833333  L 7.11626387499998 0.340326588333333  C 7.19537760088782 0.136536253609208  7.33699994984189 0.0120468546158676  7.48972336134214 0.0120468546158676  C 7.59065694982868 0.0120468546158676  7.68847291830693 0.0666009173857418  7.76652877777778 0.166427169999999  C 7.96879940047725 0.480607812967072  7.99627555857435 0.976591741815277  7.83155526388888 1.340248195  L 3.39117497222221 10.0352188083333  Z " fill-rule="nonzero" fill="#409eff" stroke="none" transform="matrix(1 0 0 1 144 45 )" />
  </g>
</svg>