<?xml version="1.0" encoding="utf-8"?>
<svg version="1.1" xmlns:xlink="http://www.w3.org/1999/xlink" width="9px" height="11px" xmlns="http://www.w3.org/2000/svg">
  <g transform="matrix(1 0 0 1 -162 -107 )">
    <path d="M 3.81507184374999 10.0352188083333  L 3.81507184374999 10.0642020483333  C 3.72857486011716 10.2382293958691  3.59066734216262 10.3497812574842  3.43884715625 10.368526025  C 3.29893757332923 10.3653616675496  3.16634000565992 10.281307431479  3.07307315625001 10.1366601266667  L 0.199134546874988 5.96307423833333  C -0.00629634131945006 5.62364892272018  -0.00629634131945006 5.12867852894648  0.199134546874988 4.78925321333332  C 0.292460968686524 4.63506761254896  0.430192512668056 4.54602429731229  0.575359242187501 4.54602429731229  C 0.720525971706947 4.54602429731229  0.858257515688502 4.63506761254896  0.951583937499991 4.78925321333332  L 3.37614304687497 8.41215762833333  L 8.00579685937498 0.340326588333333  C 8.0947998009988 0.136536253609208  8.25412494357213 0.0120468546158676  8.4259387815099 0.0120468546158676  C 8.53948906855727 0.0120468546158676  8.64953203309529 0.0666009173857418  8.737344875 0.166427169999999  C 8.96489932553691 0.480607812967072  8.99581000339614 0.976591741815277  8.81049967187499 1.340248195  L 3.81507184374999 10.0352188083333  Z " fill-rule="nonzero" fill="#ffffff" stroke="none" transform="matrix(1 0 0 1 162 107 )" />
  </g>
</svg>