<?xml version="1.0" encoding="utf-8"?>
<svg version="1.1" xmlns:xlink="http://www.w3.org/1999/xlink" width="25px" height="20px" xmlns="http://www.w3.org/2000/svg">
  <g transform="matrix(1 0 0 1 -432 -120 )">
    <path d="M 14.8033126293996 9.53907815631263  C 14.975845410628 9.67267869071476  15.0621118012422 9.82631930527722  15.0621118012422 10  C 15.0621118012422 10.1736806947228  14.975845410628 10.3273213092852  14.8033126293996 10.4609218436874  L 2.74327122153209 19.7995991983968  C 2.57073844030366 19.9331997327989  2.37232574189096 20  2.148033126294 20  C 1.92374051069703 20  1.72532781228433 19.9331997327989  1.5527950310559 19.7995991983968  L 0.25879917184265 18.7975951903808  C 0.0862663906142168 18.6639946559786  0 18.5103540414162  0 18.3366733466934  C 0 18.1629926519706  0.0862663906142168 18.0093520374081  0.25879917184265 17.875751503006  L 10.4296066252588 10  L 0.25879917184265 2.12424849699399  C 0.0862663906142168 1.99064796259185  0 1.83700734802939  0 1.66332665330661  C 0 1.48964595858383  0.0862663906142168 1.33600534402137  0.25879917184265 1.20240480961924  L 1.5527950310559 0.200400801603207  C 1.72532781228433 0.0668002672010681  1.92374051069703 0  2.148033126294 0  C 2.37232574189096 0  2.57073844030366 0.0668002672010681  2.74327122153209 0.200400801603207  L 14.8033126293996 9.53907815631263  Z M 24.7412008281574 9.53907815631263  C 24.9137336093858 9.67267869071476  25 9.82631930527722  25 10  C 25 10.1736806947228  24.9137336093858 10.3273213092852  24.7412008281574 10.4609218436874  L 12.6811594202899 19.7995991983968  C 12.5086266390614 19.9331997327989  12.3102139406487 20  12.0859213250518 20  C 11.8616287094548 20  11.6632160110421 19.9331997327989  11.4906832298137 19.7995991983968  L 10.1966873706004 18.7975951903808  C 10.024154589372 18.6639946559786  9.93788819875776 18.5103540414162  9.93788819875776 18.3366733466934  C 9.93788819875776 18.1629926519706  10.024154589372 18.0093520374081  10.1966873706004 17.875751503006  L 20.3674948240166 10  L 10.1966873706004 2.12424849699399  C 10.024154589372 1.99064796259185  9.93788819875776 1.83700734802939  9.93788819875776 1.66332665330661  C 9.93788819875776 1.48964595858383  10.024154589372 1.33600534402137  10.1966873706004 1.20240480961924  L 11.4906832298137 0.200400801603207  C 11.6632160110421 0.0668002672010681  11.8616287094548 0  12.0859213250518 0  C 12.3102139406487 0  12.5086266390614 0.0668002672010681  12.6811594202899 0.200400801603207  L 24.7412008281574 9.53907815631263  Z " fill-rule="nonzero" fill="#7f7f7f" stroke="none" transform="matrix(1 0 0 1 432 120 )" />
  </g>
</svg>